<?xml version="1.0" encoding="UTF-8"?>
<svg width="724px" height="186px" viewBox="0 0 724 186" version="1.1" xmlns="http://www.w3.org/2000/svg" xmlns:xlink="http://www.w3.org/1999/xlink">
    <!-- Generator: Sketch 42 (36781) - http://www.bohemiancoding.com/sketch -->
    <title>Artboard</title>
    <desc>Created with Sketch.</desc>
    <defs></defs>
    <g id="Lab-Grotesque" stroke="none" stroke-width="1" fill="none" fill-rule="evenodd">
        <g id="Artboard" fill="#2E00A7">
            <path d="M124.698,26.4 L31.226,26.4 L31.226,75.676 L118.602,75.676 L118.602,100.822 L31.226,100.822 L31.226,155.94 L127.238,155.94 L127.238,181.34 L1,181.34 L1,1 L124.698,1 L124.698,26.4 Z M223.815806,116.799 L272.448,165.431194 L253.281194,184.598 L204.649,135.965806 L156.016806,184.598 L136.85,165.431194 L185.482194,116.799 L136.85,68.1668059 L156.016806,49 L204.649,97.6321941 L253.281194,49 L272.448,68.1668059 L223.815806,116.799 Z M378.796,61.833 C388.10938,69.8763736 392.766,80.6712656 392.766,94.218 L392.766,181.34 L367.62,181.34 L367.62,166.862 C363.55598,172.788696 357.925703,177.360651 350.729,180.578 C343.532297,183.795349 335.108048,185.404 325.456,185.404 C312.247934,185.404 301.326043,182.440696 292.69,176.514 C284.053957,170.587304 279.736,161.528061 279.736,149.336 C279.736,135.9586 284.773616,126.010366 294.849,119.491 C304.924384,112.971634 318.936577,108.018684 336.886,104.632 L366.096,99.298 L366.096,94.726 C366.096,87.7832986 363.725357,82.4070191 358.984,78.597 C354.242643,74.786981 347.808041,72.882 339.68,72.882 C331.721294,72.882 324.821029,74.4906506 318.979,77.708 C313.136971,80.9253494 306.406038,86.3439619 298.786,93.964 L281.26,77.708 C289.218706,68.2252859 297.85462,61.1980229 307.168,56.626 C316.48138,52.0539771 327.064607,49.768 338.918,49.768 C356.190086,49.768 369.48262,53.7896265 378.796,61.833 Z M355.555,154.797 C362.582368,149.293639 366.096,141.462051 366.096,131.302 L366.096,119.618 L343.998,124.19 C331.297936,126.899347 321.984696,129.862651 316.058,133.08 C310.131304,136.297349 307.168,141.207967 307.168,147.812 C307.168,152.553357 309.157647,156.278653 313.137,158.988 C317.116353,161.697347 322.577299,163.052 329.52,163.052 C339.849385,163.052 348.527632,160.300361 355.555,154.797 Z M511.163,58.658 C519.714376,64.2460279 526.402976,72.1199492 531.229,82.28 C536.055024,92.4400508 538.468,104.2086 538.468,117.586 C538.468,130.9634 536.012691,142.731949 531.102,152.892 C526.191309,163.052051 519.460376,170.883639 510.909,176.387 C502.357624,181.890361 492.663388,184.642 481.826,184.642 C462.860572,184.642 448.890712,177.614737 439.916,163.56 L439.916,181.34 L414.008,181.34 L414.008,1 L441.948,1 L441.948,69.072 C451.092046,56.5412707 464.469245,50.276 482.08,50.276 C492.917388,50.276 502.611624,53.0699721 511.163,58.658 Z M498.749,148.828 C504.929698,141.038628 508.02,130.624732 508.02,117.586 C508.02,104.377934 504.97203,93.8370394 498.876,85.963 C492.77997,78.0889606 484.567385,74.152 474.238,74.152 C463.739281,74.152 455.188033,78.0466277 448.584,85.836 C441.979967,93.6253723 438.678,104.2086 438.678,117.586 C438.678,130.9634 442.0223,141.461962 448.711,149.082 C455.3997,156.702038 463.908615,160.512 474.238,160.512 C484.398051,160.512 492.568302,156.617372 498.749,148.828 Z M674.406,159.496 C665.261954,168.80938 656.287377,175.413314 647.482,179.308 C638.676623,183.202686 628.855388,185.15 618.018,185.15 C604.809934,185.15 593.295382,182.398361 583.474,176.895 C573.652618,171.391639 566.075027,163.602384 560.741,153.527 C555.406973,143.451616 552.74,131.7254 552.74,118.348 C552.74,105.139934 555.279975,93.3290521 560.36,82.915 C565.440025,72.5009479 572.721286,64.3730292 582.204,58.531 C591.686714,52.6889708 602.777936,49.768 615.478,49.768 C634.274094,49.768 648.751949,55.3559441 658.912,66.532 C669.072051,77.7080559 674.152,93.0325693 674.152,112.506 C674.152,116.739354 673.982668,120.549316 673.644,123.936 L580.172,123.936 C581.188005,135.112056 584.913301,144.171299 591.348,151.114 C597.782699,158.056701 606.841942,161.528 618.526,161.528 C626.146038,161.528 632.665306,160.173347 638.084,157.464 C643.502694,154.754653 650.275959,149.75937 658.404,142.478 L674.406,159.496 Z M593.364,80.248 C587.606638,85.8360279 583.796676,93.6252834 581.934,103.616 L647.72,103.616 C647.211997,93.7946176 644.206361,86.047695 638.703,80.375 C633.199639,74.702305 625.537382,71.866 615.716,71.866 C606.571954,71.866 599.121362,74.6599721 593.364,80.248 Z M723.746,181.34 L695.806,181.34 L695.806,1 L723.746,1 L723.746,181.34 Z" id="E×abel"></path>
        </g>
    </g>
</svg>