<?xml version="1.0" encoding="UTF-8" standalone="no"?>
<!-- Created with Inkscape (http://www.inkscape.org/) -->

<svg
   width="88.921997mm"
   height="64.584999mm"
   viewBox="0 0 88.921997 64.585"
   version="1.1"
   id="svg8"
   inkscape:version="1.2.2 (b0a8486541, 2022-12-01)"
   sodipodi:docname="scribe.svg"
   inkscape:export-filename="scribe_white.pdf"
   inkscape:export-xdpi="300"
   inkscape:export-ydpi="300"
   xmlns:inkscape="http://www.inkscape.org/namespaces/inkscape"
   xmlns:sodipodi="http://sodipodi.sourceforge.net/DTD/sodipodi-0.dtd"
   xmlns="http://www.w3.org/2000/svg"
   xmlns:svg="http://www.w3.org/2000/svg"
   xmlns:rdf="http://www.w3.org/1999/02/22-rdf-syntax-ns#"
   xmlns:cc="http://creativecommons.org/ns#"
   xmlns:dc="http://purl.org/dc/elements/1.1/">
  <defs
     id="defs2">
    <inkscape:path-effect
       effect="fillet_chamfer"
       id="path-effect173"
       is_visible="true"
       lpeversion="1"
       nodesatellites_param="F,0,0,1,0,1.0583333,0,1 @ F,0,0,1,0,1.0583333,0,1 @ F,0,0,1,0,1.0583333,0,1 @ F,0,0,1,0,1.0583333,0,1"
       unit="px"
       method="auto"
       mode="F"
       radius="4"
       chamfer_steps="1"
       flexible="false"
       use_knot_distance="true"
       apply_no_radius="true"
       apply_with_radius="true"
       only_selected="false"
       hide_knots="false" />
    <inkscape:path-effect
       effect="fillet_chamfer"
       id="path-effect173-3"
       is_visible="true"
       lpeversion="1"
       nodesatellites_param="F,0,0,1,0,1.0583333,0,1 @ F,0,0,1,0,1.0583333,0,1 @ F,0,0,1,0,1.0583333,0,1 @ F,0,0,1,0,1.0583333,0,1"
       unit="px"
       method="auto"
       mode="F"
       radius="4"
       chamfer_steps="1"
       flexible="false"
       use_knot_distance="true"
       apply_no_radius="true"
       apply_with_radius="true"
       only_selected="false"
       hide_knots="false" />
    <inkscape:path-effect
       effect="fillet_chamfer"
       id="path-effect173-7"
       is_visible="true"
       lpeversion="1"
       nodesatellites_param="F,0,0,1,0,1.0583333,0,1 @ F,0,0,1,0,1.0583333,0,1 @ F,0,0,1,0,1.0583333,0,1 @ F,0,0,1,0,1.0583333,0,1"
       unit="px"
       method="auto"
       mode="F"
       radius="4"
       chamfer_steps="1"
       flexible="false"
       use_knot_distance="true"
       apply_no_radius="true"
       apply_with_radius="true"
       only_selected="false"
       hide_knots="false" />
    <inkscape:path-effect
       effect="fillet_chamfer"
       id="path-effect173-35"
       is_visible="true"
       lpeversion="1"
       nodesatellites_param="F,0,0,1,0,1.0583333,0,1 @ F,0,0,1,0,1.0583333,0,1 @ F,0,0,1,0,1.0583333,0,1 @ F,0,0,1,0,1.0583333,0,1"
       unit="px"
       method="auto"
       mode="F"
       radius="4"
       chamfer_steps="1"
       flexible="false"
       use_knot_distance="true"
       apply_no_radius="true"
       apply_with_radius="true"
       only_selected="false"
       hide_knots="false" />
    <inkscape:path-effect
       effect="fillet_chamfer"
       id="path-effect173-9"
       is_visible="true"
       lpeversion="1"
       nodesatellites_param="F,0,0,1,0,1.0583333,0,1 @ F,0,0,1,0,1.0583333,0,1 @ F,0,0,1,0,1.0583333,0,1 @ F,0,0,1,0,1.0583333,0,1"
       unit="px"
       method="auto"
       mode="F"
       radius="4"
       chamfer_steps="1"
       flexible="false"
       use_knot_distance="true"
       apply_no_radius="true"
       apply_with_radius="true"
       only_selected="false"
       hide_knots="false" />
    <inkscape:path-effect
       effect="fillet_chamfer"
       id="path-effect173-2"
       is_visible="true"
       lpeversion="1"
       nodesatellites_param="F,0,0,1,0,1.0583333,0,1 @ F,0,0,1,0,1.0583333,0,1 @ F,0,0,1,0,1.0583333,0,1 @ F,0,0,1,0,1.0583333,0,1"
       unit="px"
       method="auto"
       mode="F"
       radius="4"
       chamfer_steps="1"
       flexible="false"
       use_knot_distance="true"
       apply_no_radius="true"
       apply_with_radius="true"
       only_selected="false"
       hide_knots="false" />
    <inkscape:path-effect
       effect="fillet_chamfer"
       id="path-effect173-0"
       is_visible="true"
       lpeversion="1"
       nodesatellites_param="F,0,0,1,0,1.0583333,0,1 @ F,0,0,1,0,1.0583333,0,1 @ F,0,0,1,0,1.0583333,0,1 @ F,0,0,1,0,1.0583333,0,1"
       unit="px"
       method="auto"
       mode="F"
       radius="4"
       chamfer_steps="1"
       flexible="false"
       use_knot_distance="true"
       apply_no_radius="true"
       apply_with_radius="true"
       only_selected="false"
       hide_knots="false" />
    <inkscape:path-effect
       effect="fillet_chamfer"
       id="path-effect173-36"
       is_visible="true"
       lpeversion="1"
       nodesatellites_param="F,0,0,1,0,1.0583333,0,1 @ F,0,0,1,0,1.0583333,0,1 @ F,0,0,1,0,1.0583333,0,1 @ F,0,0,1,0,1.0583333,0,1"
       unit="px"
       method="auto"
       mode="F"
       radius="4"
       chamfer_steps="1"
       flexible="false"
       use_knot_distance="true"
       apply_no_radius="true"
       apply_with_radius="true"
       only_selected="false"
       hide_knots="false" />
    <inkscape:path-effect
       effect="fillet_chamfer"
       id="path-effect173-6"
       is_visible="true"
       lpeversion="1"
       nodesatellites_param="F,0,0,1,0,1.0583333,0,1 @ F,0,0,1,0,1.0583333,0,1 @ F,0,0,1,0,1.0583333,0,1 @ F,0,0,1,0,1.0583333,0,1"
       unit="px"
       method="auto"
       mode="F"
       radius="4"
       chamfer_steps="1"
       flexible="false"
       use_knot_distance="true"
       apply_no_radius="true"
       apply_with_radius="true"
       only_selected="false"
       hide_knots="false" />
    <inkscape:path-effect
       effect="fillet_chamfer"
       id="path-effect173-61"
       is_visible="true"
       lpeversion="1"
       nodesatellites_param="F,0,0,1,0,1.0583333,0,1 @ F,0,0,1,0,1.0583333,0,1 @ F,0,0,1,0,1.0583333,0,1 @ F,0,0,1,0,1.0583333,0,1"
       unit="px"
       method="auto"
       mode="F"
       radius="4"
       chamfer_steps="1"
       flexible="false"
       use_knot_distance="true"
       apply_no_radius="true"
       apply_with_radius="true"
       only_selected="false"
       hide_knots="false" />
    <inkscape:path-effect
       effect="fillet_chamfer"
       id="path-effect173-79"
       is_visible="true"
       lpeversion="1"
       nodesatellites_param="F,0,0,1,0,1.0583333,0,1 @ F,0,0,1,0,1.0583333,0,1 @ F,0,0,1,0,1.0583333,0,1 @ F,0,0,1,0,1.0583333,0,1"
       unit="px"
       method="auto"
       mode="F"
       radius="4"
       chamfer_steps="1"
       flexible="false"
       use_knot_distance="true"
       apply_no_radius="true"
       apply_with_radius="true"
       only_selected="false"
       hide_knots="false" />
    <inkscape:path-effect
       effect="fillet_chamfer"
       id="path-effect173-23"
       is_visible="true"
       lpeversion="1"
       nodesatellites_param="F,0,0,1,0,1.0583333,0,1 @ F,0,0,1,0,1.0583333,0,1 @ F,0,0,1,0,1.0583333,0,1 @ F,0,0,1,0,1.0583333,0,1"
       unit="px"
       method="auto"
       mode="F"
       radius="4"
       chamfer_steps="1"
       flexible="false"
       use_knot_distance="true"
       apply_no_radius="true"
       apply_with_radius="true"
       only_selected="false"
       hide_knots="false" />
    <inkscape:path-effect
       effect="fillet_chamfer"
       id="path-effect173-92"
       is_visible="true"
       lpeversion="1"
       nodesatellites_param="F,0,0,1,0,1.0583333,0,1 @ F,0,0,1,0,1.0583333,0,1 @ F,0,0,1,0,1.0583333,0,1 @ F,0,0,1,0,1.0583333,0,1"
       unit="px"
       method="auto"
       mode="F"
       radius="4"
       chamfer_steps="1"
       flexible="false"
       use_knot_distance="true"
       apply_no_radius="true"
       apply_with_radius="true"
       only_selected="false"
       hide_knots="false" />
    <inkscape:path-effect
       effect="fillet_chamfer"
       id="path-effect173-97"
       is_visible="true"
       lpeversion="1"
       nodesatellites_param="F,0,0,1,0,1.0583333,0,1 @ F,0,0,1,0,1.0583333,0,1 @ F,0,0,1,0,1.0583333,0,1 @ F,0,0,1,0,1.0583333,0,1"
       unit="px"
       method="auto"
       mode="F"
       radius="4"
       chamfer_steps="1"
       flexible="false"
       use_knot_distance="true"
       apply_no_radius="true"
       apply_with_radius="true"
       only_selected="false"
       hide_knots="false" />
    <inkscape:path-effect
       effect="fillet_chamfer"
       id="path-effect173-612"
       is_visible="true"
       lpeversion="1"
       nodesatellites_param="F,0,0,1,0,1.0583333,0,1 @ F,0,0,1,0,1.0583333,0,1 @ F,0,0,1,0,1.0583333,0,1 @ F,0,0,1,0,1.0583333,0,1"
       unit="px"
       method="auto"
       mode="F"
       radius="4"
       chamfer_steps="1"
       flexible="false"
       use_knot_distance="true"
       apply_no_radius="true"
       apply_with_radius="true"
       only_selected="false"
       hide_knots="false" />
    <inkscape:path-effect
       effect="fillet_chamfer"
       id="path-effect173-1"
       is_visible="true"
       lpeversion="1"
       nodesatellites_param="F,0,0,1,0,1.0583333,0,1 @ F,0,0,1,0,1.0583333,0,1 @ F,0,0,1,0,1.0583333,0,1 @ F,0,0,1,0,1.0583333,0,1"
       unit="px"
       method="auto"
       mode="F"
       radius="4"
       chamfer_steps="1"
       flexible="false"
       use_knot_distance="true"
       apply_no_radius="true"
       apply_with_radius="true"
       only_selected="false"
       hide_knots="false" />
    <inkscape:path-effect
       effect="fillet_chamfer"
       id="path-effect173-78"
       is_visible="true"
       lpeversion="1"
       nodesatellites_param="F,0,0,1,0,1.0583333,0,1 @ F,0,0,1,0,1.0583333,0,1 @ F,0,0,1,0,1.0583333,0,1 @ F,0,0,1,0,1.0583333,0,1"
       unit="px"
       method="auto"
       mode="F"
       radius="4"
       chamfer_steps="1"
       flexible="false"
       use_knot_distance="true"
       apply_no_radius="true"
       apply_with_radius="true"
       only_selected="false"
       hide_knots="false" />
    <inkscape:path-effect
       effect="fillet_chamfer"
       id="path-effect173-5"
       is_visible="true"
       lpeversion="1"
       nodesatellites_param="F,0,0,1,0,1.0583333,0,1 @ F,0,0,1,0,1.0583333,0,1 @ F,0,0,1,0,1.0583333,0,1 @ F,0,0,1,0,1.0583333,0,1"
       unit="px"
       method="auto"
       mode="F"
       radius="4"
       chamfer_steps="1"
       flexible="false"
       use_knot_distance="true"
       apply_no_radius="true"
       apply_with_radius="true"
       only_selected="false"
       hide_knots="false" />
    <inkscape:path-effect
       effect="fillet_chamfer"
       id="path-effect173-610"
       is_visible="true"
       lpeversion="1"
       nodesatellites_param="F,0,0,1,0,1.0583333,0,1 @ F,0,0,1,0,1.0583333,0,1 @ F,0,0,1,0,1.0583333,0,1 @ F,0,0,1,0,1.0583333,0,1"
       unit="px"
       method="auto"
       mode="F"
       radius="4"
       chamfer_steps="1"
       flexible="false"
       use_knot_distance="true"
       apply_no_radius="true"
       apply_with_radius="true"
       only_selected="false"
       hide_knots="false" />
    <inkscape:path-effect
       effect="fillet_chamfer"
       id="path-effect173-20"
       is_visible="true"
       lpeversion="1"
       nodesatellites_param="F,0,0,1,0,1.0583333,0,1 @ F,0,0,1,0,1.0583333,0,1 @ F,0,0,1,0,1.0583333,0,1 @ F,0,0,1,0,1.0583333,0,1"
       unit="px"
       method="auto"
       mode="F"
       radius="4"
       chamfer_steps="1"
       flexible="false"
       use_knot_distance="true"
       apply_no_radius="true"
       apply_with_radius="true"
       only_selected="false"
       hide_knots="false" />
    <inkscape:path-effect
       effect="fillet_chamfer"
       id="path-effect173-55"
       is_visible="true"
       lpeversion="1"
       nodesatellites_param="F,0,0,1,0,1.0583333,0,1 @ F,0,0,1,0,1.0583333,0,1 @ F,0,0,1,0,1.0583333,0,1 @ F,0,0,1,0,1.0583333,0,1"
       unit="px"
       method="auto"
       mode="F"
       radius="4"
       chamfer_steps="1"
       flexible="false"
       use_knot_distance="true"
       apply_no_radius="true"
       apply_with_radius="true"
       only_selected="false"
       hide_knots="false" />
  </defs>
  <sodipodi:namedview
     id="base"
     pagecolor="#ffffff"
     bordercolor="#666666"
     borderopacity="1.0"
     inkscape:pageopacity="0.0"
     inkscape:pageshadow="2"
     inkscape:zoom="4"
     inkscape:cx="194.75"
     inkscape:cy="94.125"
     inkscape:document-units="mm"
     inkscape:current-layer="layer1"
     showgrid="false"
     fit-margin-top="0"
     fit-margin-left="0"
     fit-margin-right="0"
     fit-margin-bottom="0"
     inkscape:window-width="3374"
     inkscape:window-height="1363"
     inkscape:window-x="66"
     inkscape:window-y="40"
     inkscape:window-maximized="1"
     inkscape:showpageshadow="2"
     inkscape:pagecheckerboard="0"
     inkscape:deskcolor="#d1d1d1" />
  <metadata
     id="metadata5">
    <rdf:RDF>
      <cc:Work
         rdf:about="">
        <dc:format>image/svg+xml</dc:format>
        <dc:type
           rdf:resource="http://purl.org/dc/dcmitype/StillImage" />
      </cc:Work>
    </rdf:RDF>
  </metadata>
  <g
     inkscape:label="Layer 1"
     inkscape:groupmode="layer"
     id="layer1"
     transform="translate(-11.031433,-54.028618)">
    <path
       style="fill:#000000;fill-opacity:1;stroke:none;stroke-width:0.264999;stroke-miterlimit:4;stroke-dasharray:none;stroke-opacity:1"
       id="rect171-47"
       width="2"
       height="6"
       x="91.033134"
       y="66.859093"
       inkscape:path-effect="#path-effect173-55"
       d="m 92.091468,66.859093 a 1.0016999,1.0016999 48.338469 0 1 0.941666,1.058333 v 3.883333 a 1.0583333,1.0583333 135 0 1 -1.058333,1.058334 1.0016999,1.0016999 48.338469 0 1 -0.941667,-1.058334 l 0,-3.883333 a 1.0583333,1.0583333 135 0 1 1.058334,-1.058333 z"
       sodipodi:type="rect" />
    <path
       style="fill:#000000;fill-opacity:1;stroke:none;stroke-width:0.264999;stroke-miterlimit:4;stroke-dasharray:none;stroke-opacity:1"
       id="rect171-61"
       width="2"
       height="18"
       x="87.533134"
       y="61.137474"
       inkscape:path-effect="#path-effect173-20"
       d="m 88.591468,61.137474 a 1.0016999,1.0016999 48.338469 0 1 0.941666,1.058333 v 15.883334 a 1.0583333,1.0583333 135 0 1 -1.058333,1.058333 1.0016999,1.0016999 48.338469 0 1 -0.941667,-1.058333 V 62.195807 a 1.0583333,1.0583333 135 0 1 1.058334,-1.058333 z"
       sodipodi:type="rect" />
    <path
       style="fill:#000000;fill-opacity:1;stroke:none;stroke-width:0.264999;stroke-miterlimit:4;stroke-dasharray:none;stroke-opacity:1"
       id="rect171-63"
       width="2"
       height="17"
       x="84.033134"
       y="65.503105"
       inkscape:path-effect="#path-effect173-610"
       d="m 85.091468,65.503105 a 1.0016999,1.0016999 48.338469 0 1 0.941666,1.058333 v 14.883334 a 1.0583333,1.0583333 135 0 1 -1.058333,1.058333 1.0016999,1.0016999 48.338469 0 1 -0.941667,-1.058333 V 66.561438 a 1.0583333,1.0583333 135 0 1 1.058334,-1.058333 z"
       sodipodi:type="rect" />
    <path
       style="fill:#000000;fill-opacity:1;stroke:none;stroke-width:0.264999;stroke-miterlimit:4;stroke-dasharray:none;stroke-opacity:1"
       id="rect171-03"
       width="2"
       height="17"
       x="80.533134"
       y="58.094765"
       inkscape:path-effect="#path-effect173-5"
       d="m 81.591468,58.094765 a 1.0016999,1.0016999 48.338469 0 1 0.941666,1.058333 v 14.883333 a 1.0583333,1.0583333 135 0 1 -1.058333,1.058334 1.0016999,1.0016999 48.338469 0 1 -0.941667,-1.058334 V 59.153098 a 1.0583333,1.0583333 135 0 1 1.058334,-1.058333 z"
       sodipodi:type="rect" />
    <path
       style="fill:#000000;fill-opacity:1;stroke:none;stroke-width:0.264999;stroke-miterlimit:4;stroke-dasharray:none;stroke-opacity:1"
       id="rect171-4"
       width="2"
       height="16"
       x="77.033134"
       y="62.394241"
       inkscape:path-effect="#path-effect173-78"
       d="m 78.091468,62.394241 a 1.0016999,1.0016999 48.338469 0 1 0.941666,1.058334 v 13.883333 a 1.0583333,1.0583333 135 0 1 -1.058333,1.058333 1.0016999,1.0016999 48.338469 0 1 -0.941667,-1.058333 V 63.452575 a 1.0583333,1.0583333 135 0 1 1.058334,-1.058334 z"
       sodipodi:type="rect" />
    <path
       style="fill:#000000;fill-opacity:1;stroke:none;stroke-width:0.264999;stroke-miterlimit:4;stroke-dasharray:none;stroke-opacity:1"
       id="rect171-94"
       width="2"
       height="6"
       x="73.533134"
       y="66.958313"
       inkscape:path-effect="#path-effect173-1"
       d="m 74.591468,66.958313 a 1.0016999,1.0016999 48.338469 0 1 0.941666,1.058333 v 3.883334 a 1.0583333,1.0583333 135 0 1 -1.058333,1.058333 1.0016999,1.0016999 48.338469 0 1 -0.941667,-1.058333 v -3.883334 a 1.0583333,1.0583333 135 0 1 1.058334,-1.058333 z"
       sodipodi:type="rect" />
    <path
       style="fill:#000000;fill-opacity:1;stroke:none;stroke-width:0.264999;stroke-miterlimit:4;stroke-dasharray:none;stroke-opacity:1"
       id="rect171-93"
       width="2"
       height="8.6013699"
       x="70.033134"
       y="65.933052"
       inkscape:path-effect="#path-effect173-612"
       d="m 71.091468,65.933052 a 1.0016999,1.0016999 48.338469 0 1 0.941666,1.058333 v 6.484704 a 1.0583333,1.0583333 135 0 1 -1.058333,1.058333 1.0016999,1.0016999 48.338469 0 1 -0.941667,-1.058333 v -6.484704 a 1.0583333,1.0583333 135 0 1 1.058334,-1.058333 z"
       sodipodi:type="rect" />
    <path
       style="fill:#000000;fill-opacity:1;stroke:none;stroke-width:0.264999;stroke-miterlimit:4;stroke-dasharray:none;stroke-opacity:1"
       id="rect171-3"
       width="2"
       height="6"
       x="66.533134"
       y="66.462219"
       inkscape:path-effect="#path-effect173-97"
       d="m 67.591468,66.462219 a 1.0016999,1.0016999 48.338469 0 1 0.941666,1.058334 v 3.883333 a 1.0583333,1.0583333 135 0 1 -1.058333,1.058333 1.0016999,1.0016999 48.338469 0 1 -0.941667,-1.058333 v -3.883333 a 1.0583333,1.0583333 135 0 1 1.058334,-1.058334 z"
       sodipodi:type="rect" />
    <path
       style="fill:#000000;fill-opacity:1;stroke:none;stroke-width:0.264999;stroke-miterlimit:4;stroke-dasharray:none;stroke-opacity:1"
       id="rect171-28"
       width="2"
       height="18"
       x="63.033134"
       y="61.137474"
       inkscape:path-effect="#path-effect173-92"
       d="m 64.091468,61.137474 a 1.0016999,1.0016999 48.338469 0 1 0.941666,1.058333 v 15.883334 a 1.0583333,1.0583333 135 0 1 -1.058333,1.058333 1.0016999,1.0016999 48.338469 0 1 -0.941667,-1.058333 V 62.195807 a 1.0583333,1.0583333 135 0 1 1.058334,-1.058333 z"
       sodipodi:type="rect" />
    <path
       style="fill:#000000;fill-opacity:1;stroke:none;stroke-width:0.264999;stroke-miterlimit:4;stroke-dasharray:none;stroke-opacity:1"
       id="rect171-75"
       width="2"
       height="17"
       x="59.533134"
       y="65.073158"
       inkscape:path-effect="#path-effect173-23"
       d="m 60.591468,65.073158 a 1.0016999,1.0016999 48.338469 0 1 0.941666,1.058334 v 14.883333 a 1.0583333,1.0583333 135 0 1 -1.058333,1.058333 1.0016999,1.0016999 48.338469 0 1 -0.941667,-1.058333 V 66.131492 a 1.0583333,1.0583333 135 0 1 1.058334,-1.058334 z"
       sodipodi:type="rect" />
    <path
       style="fill:#000000;fill-opacity:1;stroke:none;stroke-width:0.264999;stroke-miterlimit:4;stroke-dasharray:none;stroke-opacity:1"
       id="rect171-20"
       width="2"
       height="17"
       x="56.033134"
       y="58.061691"
       inkscape:path-effect="#path-effect173-79"
       d="m 57.091468,58.061691 a 1.0016999,1.0016999 48.338469 0 1 0.941666,1.058334 v 14.883333 a 1.0583333,1.0583333 135 0 1 -1.058333,1.058333 1.0016999,1.0016999 48.338469 0 1 -0.941667,-1.058333 V 59.120025 a 1.0583333,1.0583333 135 0 1 1.058334,-1.058334 z"
       sodipodi:type="rect" />
    <path
       style="fill:#000000;fill-opacity:1;stroke:none;stroke-width:0.264999;stroke-miterlimit:4;stroke-dasharray:none;stroke-opacity:1"
       id="rect171-8"
       width="2"
       height="16"
       x="52.533134"
       y="62.559608"
       inkscape:path-effect="#path-effect173-61"
       d="m 53.591468,62.559608 a 1.0016999,1.0016999 48.338469 0 1 0.941666,1.058334 l 0,13.883333 a 1.0583333,1.0583333 135 0 1 -1.058333,1.058333 1.0016999,1.0016999 48.338469 0 1 -0.941667,-1.058333 V 63.617942 a 1.0583333,1.0583333 135 0 1 1.058334,-1.058334 z"
       sodipodi:type="rect" />
    <path
       style="fill:#000000;fill-opacity:1;stroke:none;stroke-width:0.264999;stroke-miterlimit:4;stroke-dasharray:none;stroke-opacity:1"
       id="rect171-2"
       width="2"
       height="5"
       x="49.033134"
       y="67.322113"
       inkscape:path-effect="#path-effect173-6"
       d="m 50.091468,67.322113 a 1.0016999,1.0016999 48.338469 0 1 0.941666,1.058333 v 2.883334 a 1.0583333,1.0583333 135 0 1 -1.058333,1.058333 1.0016999,1.0016999 48.338469 0 1 -0.941667,-1.058333 v -2.883334 a 1.0583333,1.0583333 135 0 1 1.058334,-1.058333 z"
       sodipodi:type="rect" />
    <path
       style="fill:#000000;fill-opacity:1;stroke:none;stroke-width:0.264999;stroke-miterlimit:4;stroke-dasharray:none;stroke-opacity:1"
       id="rect171-0"
       width="2"
       height="8"
       x="45.533134"
       y="66.296852"
       inkscape:path-effect="#path-effect173-36"
       d="m 46.591468,66.296852 a 1.0016999,1.0016999 48.338469 0 1 0.941666,1.058333 v 5.883334 a 1.0583333,1.0583333 135 0 1 -1.058333,1.058333 1.0016999,1.0016999 48.338469 0 1 -0.941667,-1.058333 v -5.883334 a 1.0583333,1.0583333 135 0 1 1.058334,-1.058333 z"
       sodipodi:type="rect" />
    <path
       style="fill:#000000;fill-opacity:1;stroke:none;stroke-width:0.264999;stroke-miterlimit:4;stroke-dasharray:none;stroke-opacity:1"
       id="rect171-9"
       width="2"
       height="6"
       x="42.033134"
       y="66.495293"
       inkscape:path-effect="#path-effect173-0"
       d="m 43.091468,66.495293 a 1.0016999,1.0016999 48.338469 0 1 0.941666,1.058333 v 3.883333 a 1.0583333,1.0583333 135 0 1 -1.058333,1.058334 1.0016999,1.0016999 48.338469 0 1 -0.941667,-1.058334 v -3.883333 a 1.0583333,1.0583333 135 0 1 1.058334,-1.058333 z"
       sodipodi:type="rect" />
    <path
       style="fill:#000000;fill-opacity:1;stroke:none;stroke-width:0.264999;stroke-miterlimit:4;stroke-dasharray:none;stroke-opacity:1"
       id="rect171-7"
       width="2"
       height="19"
       x="38.533134"
       y="60.872894"
       inkscape:path-effect="#path-effect173-2"
       d="m 39.591468,60.872894 a 1.0016999,1.0016999 48.338469 0 1 0.941666,1.058334 v 16.883333 a 1.0583333,1.0583333 135 0 1 -1.058333,1.058333 1.0016999,1.0016999 48.338469 0 1 -0.941667,-1.058333 V 61.931228 a 1.0583333,1.0583333 135 0 1 1.058334,-1.058334 z"
       sodipodi:type="rect" />
    <path
       style="fill:#000000;fill-opacity:1;stroke:none;stroke-width:0.264999;stroke-miterlimit:4;stroke-dasharray:none;stroke-opacity:1"
       id="rect171-1"
       width="2"
       height="17"
       x="35.033134"
       y="65.370811"
       inkscape:path-effect="#path-effect173-9"
       d="m 36.091468,65.370811 a 1.0016999,1.0016999 48.338469 0 1 0.941666,1.058334 v 14.883333 a 1.0583333,1.0583333 135 0 1 -1.058333,1.058333 1.0016999,1.0016999 48.338469 0 1 -0.941667,-1.058333 V 66.429145 a 1.0583333,1.0583333 135 0 1 1.058334,-1.058334 z"
       sodipodi:type="rect" />
    <path
       style="fill:#000000;fill-opacity:1;stroke:none;stroke-width:0.264999;stroke-miterlimit:4;stroke-dasharray:none;stroke-opacity:1"
       id="rect171-62"
       width="2"
       height="17"
       x="31.533134"
       y="58.028618"
       inkscape:path-effect="#path-effect173-35"
       d="m 32.591468,58.028618 a 1.0016999,1.0016999 48.338469 0 1 0.941666,1.058333 v 14.883334 a 1.0583333,1.0583333 135 0 1 -1.058333,1.058333 1.0016999,1.0016999 48.338469 0 1 -0.941667,-1.058333 V 59.086951 a 1.0583333,1.0583333 135 0 1 1.058334,-1.058333 z"
       sodipodi:type="rect" />
    <path
       style="fill:#000000;fill-opacity:1;stroke:none;stroke-width:0.264999;stroke-miterlimit:4;stroke-dasharray:none;stroke-opacity:1"
       id="rect171-5"
       width="2"
       height="16"
       x="28.033133"
       y="62.452881"
       inkscape:path-effect="#path-effect173-7"
       d="m 29.091466,62.452881 a 1.0016999,1.0016999 48.338469 0 1 0.941667,1.058333 l 0,13.883334 a 1.0583333,1.0583333 135 0 1 -1.058334,1.058333 1.0016999,1.0016999 48.338469 0 1 -0.941666,-1.058333 V 63.511214 a 1.0583333,1.0583333 135 0 1 1.058333,-1.058333 z"
       sodipodi:type="rect" />
    <text
       xml:space="preserve"
       style="font-style:normal;font-weight:normal;font-size:10.5833px;line-height:1.25;font-family:sans-serif;letter-spacing:0px;word-spacing:0px;fill:#000000;fill-opacity:1;stroke:none;stroke-width:0.264583"
       x="15.551166"
       y="100.77903"
       id="text817"><tspan
         sodipodi:role="line"
         id="tspan815"
         x="15.551166"
         y="100.77903"
         style="font-style:normal;font-variant:normal;font-weight:normal;font-stretch:normal;font-size:22.5778px;font-family:'Latin Modern Mono Caps';-inkscape-font-specification:'Latin Modern Mono Caps, Normal';font-variant-ligatures:normal;font-variant-caps:normal;font-variant-numeric:normal;font-feature-settings:normal;text-align:start;writing-mode:lr-tb;text-anchor:start;stroke-width:0.264583;fill:#000000;fill-opacity:1">SCRIBE</tspan></text>
    <text
       xml:space="preserve"
       style="font-style:normal;font-weight:normal;font-size:10.5833px;line-height:1.25;font-family:sans-serif;letter-spacing:0px;word-spacing:0px;fill:#000000;fill-opacity:1;stroke:none;stroke-width:0.264583"
       x="16.078728"
       y="107.14965"
       id="text821"><tspan
         sodipodi:role="line"
         x="16.078728"
         y="107.14965"
         style="font-style:normal;font-variant:normal;font-weight:normal;font-stretch:normal;font-size:4.93889px;font-family:sans-serif;-inkscape-font-specification:'sans-serif, Normal';font-variant-ligatures:normal;font-variant-caps:normal;font-variant-numeric:normal;font-feature-settings:normal;text-align:start;writing-mode:lr-tb;text-anchor:start;stroke-width:0.264583;fill:#000000;fill-opacity:1"
         id="tspan827">Machine transcription of</tspan></text>
    <text
       xml:space="preserve"
       style="font-style:normal;font-weight:normal;font-size:10.5833px;line-height:1.25;font-family:sans-serif;letter-spacing:0px;word-spacing:0px;fill:#000000;fill-opacity:1;stroke:none;stroke-width:0.264583"
       x="16.017658"
       y="112.82786"
       id="text833"><tspan
         sodipodi:role="line"
         id="tspan831"
         x="16.017658"
         y="112.82786"
         style="font-size:4.93889px;stroke-width:0.264583;fill:#000000;fill-opacity:1">Norwegian conversational speech</tspan></text>
    <path
       style="fill:#000000;fill-opacity:1;stroke:none;stroke-width:0.264999;stroke-miterlimit:4;stroke-dasharray:none;stroke-opacity:1"
       id="rect171"
       width="2"
       height="8.6013699"
       x="21.033133"
       y="66.242058"
       inkscape:path-effect="#path-effect173"
       d="m 22.091466,66.242058 a 1.0016999,1.0016999 48.338469 0 1 0.941667,1.058333 v 6.484703 a 1.0583333,1.0583333 135 0 1 -1.058334,1.058334 1.0016999,1.0016999 48.338469 0 1 -0.941666,-1.058334 v -6.484703 a 1.0583333,1.0583333 135 0 1 1.058333,-1.058333 z"
       sodipodi:type="rect" />
    <path
       style="fill:#000000;fill-opacity:1;stroke:none;stroke-width:0.264999;stroke-miterlimit:4;stroke-dasharray:none;stroke-opacity:1"
       id="rect171-6"
       width="2"
       height="6"
       x="24.533133"
       y="67.128937"
       inkscape:path-effect="#path-effect173-3"
       d="m 25.591466,67.128937 a 1.0016999,1.0016999 48.338469 0 1 0.941667,1.058333 v 3.883333 a 1.0583333,1.0583333 135 0 1 -1.058334,1.058334 1.0016999,1.0016999 48.338469 0 1 -0.941666,-1.058334 V 68.18727 a 1.0583333,1.0583333 135 0 1 1.058333,-1.058333 z"
       sodipodi:type="rect" />
  </g>
</svg>
